<svg xmlns="http://www.w3.org/2000/svg" xmlns:xlink="http://www.w3.org/1999/xlink" width="797" height="259" viewBox="0 0 797 259">
  <defs>
    <clipPath id="clip-path">
      <rect id="矩形_2311" data-name="矩形 2311" width="797" height="259" transform="translate(107 360)" fill="#fff" stroke="#707070" stroke-width="1"/>
    </clipPath>
    <clipPath id="clip-path-2">
      <ellipse id="椭圆_395" data-name="椭圆 395" cx="283" cy="272" rx="283" ry="272" transform="translate(1071.941 -420.972)" fill="#ffc700"/>
    </clipPath>
  </defs>
  <g id="蒙版组_59" data-name="蒙版组 59" transform="translate(-107 -360)" clip-path="url(#clip-path)">
    <circle id="椭圆_693" data-name="椭圆 693" cx="166" cy="166" r="166" transform="translate(107 489)" fill="#177584"/>
    <g id="蒙版组_221" data-name="蒙版组 221" transform="translate(-733.941 838.972)" clip-path="url(#clip-path-2)">
      <path id="路径_5347" data-name="路径 5347" d="M946.326,319.466a6.233,6.233,0,1,0,6.233-6.233,6.232,6.232,0,0,0-6.233,6.233m0,20.775a6.233,6.233,0,1,0,6.233-6.233,6.23,6.23,0,0,0-6.233,6.233m6.233,305.411a6.235,6.235,0,1,0,6.233,6.237,6.233,6.233,0,0,0-6.233-6.237m-20.778,0a6.235,6.235,0,1,0,6.233,6.237,6.235,6.235,0,0,0-6.233-6.237m-20.775,0a6.235,6.235,0,1,0,6.233,6.237,6.233,6.233,0,0,0-6.233-6.237m-20.778,0a6.235,6.235,0,1,0,6.233,6.237,6.235,6.235,0,0,0-6.233-6.237m-20.775,0a6.235,6.235,0,1,0,6.233,6.237,6.235,6.235,0,0,0-6.233-6.237m-20.775,0a6.235,6.235,0,1,0,6.233,6.237,6.233,6.233,0,0,0-6.233-6.237m-20.778,0a6.235,6.235,0,1,0,6.233,6.237,6.235,6.235,0,0,0-6.233-6.237m-20.775,0a6.235,6.235,0,1,0,6.233,6.237,6.233,6.233,0,0,0-6.233-6.237m-20.779,0a6.235,6.235,0,1,0,6.233,6.237,6.236,6.236,0,0,0-6.233-6.237m-20.775,0a6.235,6.235,0,1,0,6.233,6.237,6.235,6.235,0,0,0-6.233-6.237m-20.778,0a6.235,6.235,0,1,0,6.237,6.237,6.235,6.235,0,0,0-6.237-6.237m-20.775,0a6.235,6.235,0,1,0,6.233,6.237,6.235,6.235,0,0,0-6.233-6.237m-20.775,0a6.235,6.235,0,1,0,6.233,6.237,6.233,6.233,0,0,0-6.233-6.237m-20.778,0a6.235,6.235,0,1,0,6.233,6.237,6.236,6.236,0,0,0-6.233-6.237m-20.775,0a6.235,6.235,0,1,0,6.233,6.237,6.233,6.233,0,0,0-6.233-6.237m-20.778,0a6.235,6.235,0,1,0,6.233,6.237,6.236,6.236,0,0,0-6.233-6.237m-20.775,0a6.235,6.235,0,1,0,6.233,6.237,6.235,6.235,0,0,0-6.233-6.237m332.423-20.775a6.233,6.233,0,1,0,6.233,6.233,6.232,6.232,0,0,0-6.233-6.233m-20.778,0a6.233,6.233,0,1,0,6.233,6.233,6.235,6.235,0,0,0-6.233-6.233m-20.775,0a6.233,6.233,0,1,0,6.233,6.233,6.232,6.232,0,0,0-6.233-6.233m-20.778,0a6.233,6.233,0,1,0,6.233,6.233,6.234,6.234,0,0,0-6.233-6.233m-20.775,0a6.233,6.233,0,1,0,6.233,6.233,6.234,6.234,0,0,0-6.233-6.233m-20.775,0a6.233,6.233,0,1,0,6.233,6.233,6.232,6.232,0,0,0-6.233-6.233m-20.778,0a6.233,6.233,0,1,0,6.233,6.233,6.235,6.235,0,0,0-6.233-6.233m-20.775,0a6.233,6.233,0,1,0,6.233,6.233,6.232,6.232,0,0,0-6.233-6.233m-20.779,0a6.233,6.233,0,1,0,6.233,6.233,6.235,6.235,0,0,0-6.233-6.233m-20.775,0a6.233,6.233,0,1,0,6.233,6.233,6.235,6.235,0,0,0-6.233-6.233m-20.778,0a6.233,6.233,0,1,0,6.237,6.233,6.235,6.235,0,0,0-6.237-6.233m-20.775,0a6.233,6.233,0,1,0,6.233,6.233,6.235,6.235,0,0,0-6.233-6.233m-20.775,0a6.233,6.233,0,1,0,6.233,6.233,6.232,6.232,0,0,0-6.233-6.233m-20.778,0a6.233,6.233,0,1,0,6.233,6.233,6.235,6.235,0,0,0-6.233-6.233m-20.775,0a6.233,6.233,0,1,0,6.233,6.233,6.232,6.232,0,0,0-6.233-6.233m-20.778,0a6.233,6.233,0,1,0,6.233,6.233,6.235,6.235,0,0,0-6.233-6.233m-20.775,0a6.233,6.233,0,1,0,6.233,6.233,6.234,6.234,0,0,0-6.233-6.233M952.558,604.1a6.233,6.233,0,1,0,6.233,6.233,6.23,6.23,0,0,0-6.233-6.233m-20.778,0a6.233,6.233,0,1,0,6.233,6.233,6.232,6.232,0,0,0-6.233-6.233m-20.775,0a6.233,6.233,0,1,0,6.233,6.233,6.23,6.23,0,0,0-6.233-6.233m-20.778,0a6.233,6.233,0,1,0,6.233,6.233,6.232,6.232,0,0,0-6.233-6.233m-20.775,0a6.233,6.233,0,1,0,6.233,6.233,6.232,6.232,0,0,0-6.233-6.233m-20.775,0a6.233,6.233,0,1,0,6.233,6.233,6.23,6.23,0,0,0-6.233-6.233m-20.778,0a6.233,6.233,0,1,0,6.233,6.233A6.232,6.232,0,0,0,827.9,604.1m-20.775,0a6.233,6.233,0,1,0,6.233,6.233,6.23,6.23,0,0,0-6.233-6.233m-20.779,0a6.233,6.233,0,1,0,6.233,6.233,6.232,6.232,0,0,0-6.233-6.233m-20.775,0a6.233,6.233,0,1,0,6.233,6.233,6.232,6.232,0,0,0-6.233-6.233m-20.778,0a6.233,6.233,0,1,0,6.237,6.233,6.232,6.232,0,0,0-6.237-6.233m-20.775,0a6.233,6.233,0,1,0,6.233,6.233,6.232,6.232,0,0,0-6.233-6.233m-20.775,0a6.233,6.233,0,1,0,6.233,6.233,6.23,6.23,0,0,0-6.233-6.233m-20.778,0a6.233,6.233,0,1,0,6.233,6.233,6.232,6.232,0,0,0-6.233-6.233m-20.775,0a6.233,6.233,0,1,0,6.233,6.233,6.23,6.23,0,0,0-6.233-6.233m-20.778,0a6.233,6.233,0,1,0,6.233,6.233,6.232,6.232,0,0,0-6.233-6.233m-20.775,0a6.233,6.233,0,1,0,6.233,6.233,6.232,6.232,0,0,0-6.233-6.233m332.423-20.778a6.233,6.233,0,1,0,6.233,6.233,6.232,6.232,0,0,0-6.233-6.233m-20.778,0a6.233,6.233,0,1,0,6.233,6.233,6.234,6.234,0,0,0-6.233-6.233m-20.775,0a6.233,6.233,0,1,0,6.233,6.233,6.232,6.232,0,0,0-6.233-6.233m-20.778,0a6.233,6.233,0,1,0,6.233,6.233,6.234,6.234,0,0,0-6.233-6.233m-20.775,0a6.233,6.233,0,1,0,6.233,6.233,6.234,6.234,0,0,0-6.233-6.233m-20.775,0a6.233,6.233,0,1,0,6.233,6.233,6.232,6.232,0,0,0-6.233-6.233m-20.778,0a6.233,6.233,0,1,0,6.233,6.233,6.234,6.234,0,0,0-6.233-6.233m-20.775,0a6.233,6.233,0,1,0,6.233,6.233,6.232,6.232,0,0,0-6.233-6.233m-20.779,0a6.233,6.233,0,1,0,6.233,6.233,6.235,6.235,0,0,0-6.233-6.233m-20.775,0a6.233,6.233,0,1,0,6.233,6.233,6.235,6.235,0,0,0-6.233-6.233m-20.778,0a6.233,6.233,0,1,0,6.237,6.233,6.234,6.234,0,0,0-6.237-6.233m-20.775,0a6.233,6.233,0,1,0,6.233,6.233,6.235,6.235,0,0,0-6.233-6.233m-20.775,0a6.233,6.233,0,1,0,6.233,6.233,6.232,6.232,0,0,0-6.233-6.233m-20.778,0a6.233,6.233,0,1,0,6.233,6.233,6.235,6.235,0,0,0-6.233-6.233m-20.775,0a6.233,6.233,0,1,0,6.233,6.233,6.232,6.232,0,0,0-6.233-6.233m-20.778,0a6.233,6.233,0,1,0,6.233,6.233,6.235,6.235,0,0,0-6.233-6.233m-20.775,0a6.233,6.233,0,1,0,6.233,6.233,6.234,6.234,0,0,0-6.233-6.233m332.423-20.775a6.233,6.233,0,1,0,6.233,6.233,6.232,6.232,0,0,0-6.233-6.233m-20.778,0a6.233,6.233,0,1,0,6.233,6.233,6.235,6.235,0,0,0-6.233-6.233m-20.775,0a6.233,6.233,0,1,0,6.233,6.233,6.232,6.232,0,0,0-6.233-6.233m-20.778,0a6.233,6.233,0,1,0,6.233,6.233,6.234,6.234,0,0,0-6.233-6.233m-20.775,0a6.233,6.233,0,1,0,6.233,6.233,6.234,6.234,0,0,0-6.233-6.233m-20.775,0a6.233,6.233,0,1,0,6.233,6.233,6.232,6.232,0,0,0-6.233-6.233m-20.778,0a6.233,6.233,0,1,0,6.233,6.233,6.235,6.235,0,0,0-6.233-6.233m-20.775,0a6.233,6.233,0,1,0,6.233,6.233,6.232,6.232,0,0,0-6.233-6.233m-20.779,0a6.233,6.233,0,1,0,6.233,6.233,6.235,6.235,0,0,0-6.233-6.233m-20.775,0a6.233,6.233,0,1,0,6.233,6.233,6.235,6.235,0,0,0-6.233-6.233m-20.778,0a6.233,6.233,0,1,0,6.237,6.233,6.234,6.234,0,0,0-6.237-6.233m-20.775,0a6.233,6.233,0,1,0,6.233,6.233,6.235,6.235,0,0,0-6.233-6.233m-20.775,0a6.233,6.233,0,1,0,6.233,6.233,6.232,6.232,0,0,0-6.233-6.233m-20.778,0a6.233,6.233,0,1,0,6.233,6.233,6.235,6.235,0,0,0-6.233-6.233m-20.775,0a6.233,6.233,0,1,0,6.233,6.233,6.232,6.232,0,0,0-6.233-6.233m-20.778,0a6.233,6.233,0,1,0,6.233,6.233,6.235,6.235,0,0,0-6.233-6.233m-20.775,0a6.233,6.233,0,1,0,6.233,6.233,6.234,6.234,0,0,0-6.233-6.233m332.423-20.778a6.235,6.235,0,1,0,6.233,6.236,6.233,6.233,0,0,0-6.233-6.236m-20.778,0a6.235,6.235,0,1,0,6.233,6.236,6.235,6.235,0,0,0-6.233-6.236m-20.775,0a6.235,6.235,0,1,0,6.233,6.236,6.233,6.233,0,0,0-6.233-6.236m-20.778,0a6.235,6.235,0,1,0,6.233,6.236,6.235,6.235,0,0,0-6.233-6.236m-20.775,0a6.235,6.235,0,1,0,6.233,6.236,6.235,6.235,0,0,0-6.233-6.236m-20.775,0a6.235,6.235,0,1,0,6.233,6.236,6.233,6.233,0,0,0-6.233-6.236m-20.778,0a6.235,6.235,0,1,0,6.233,6.236,6.235,6.235,0,0,0-6.233-6.236m-20.775,0a6.235,6.235,0,1,0,6.233,6.236,6.233,6.233,0,0,0-6.233-6.236m-20.779,0a6.235,6.235,0,1,0,6.233,6.236,6.235,6.235,0,0,0-6.233-6.236m-20.775,0a6.235,6.235,0,1,0,6.233,6.236,6.235,6.235,0,0,0-6.233-6.236m-20.778,0a6.235,6.235,0,1,0,6.237,6.236,6.235,6.235,0,0,0-6.237-6.236m-20.775,0a6.235,6.235,0,1,0,6.233,6.236,6.235,6.235,0,0,0-6.233-6.236m-20.775,0a6.235,6.235,0,1,0,6.233,6.236,6.233,6.233,0,0,0-6.233-6.236m-20.778,0a6.235,6.235,0,1,0,6.233,6.236,6.235,6.235,0,0,0-6.233-6.236m-20.775,0a6.235,6.235,0,1,0,6.233,6.236,6.233,6.233,0,0,0-6.233-6.236m-20.778,0a6.235,6.235,0,1,0,6.233,6.236,6.235,6.235,0,0,0-6.233-6.236m-20.775,0a6.235,6.235,0,1,0,6.233,6.236,6.235,6.235,0,0,0-6.233-6.236M952.558,521a6.233,6.233,0,1,0,6.233,6.233A6.232,6.232,0,0,0,952.558,521m-20.778,0a6.233,6.233,0,1,0,6.233,6.233A6.235,6.235,0,0,0,931.78,521m-20.775,0a6.233,6.233,0,1,0,6.233,6.233A6.232,6.232,0,0,0,911.005,521m-20.778,0a6.233,6.233,0,1,0,6.233,6.233A6.234,6.234,0,0,0,890.227,521m-20.775,0a6.233,6.233,0,1,0,6.233,6.233A6.234,6.234,0,0,0,869.452,521m-20.775,0a6.233,6.233,0,1,0,6.233,6.233A6.232,6.232,0,0,0,848.677,521M827.9,521a6.233,6.233,0,1,0,6.233,6.233A6.235,6.235,0,0,0,827.9,521m-20.775,0a6.233,6.233,0,1,0,6.233,6.233A6.232,6.232,0,0,0,807.124,521m-20.779,0a6.233,6.233,0,1,0,6.233,6.233A6.235,6.235,0,0,0,786.345,521m-20.775,0a6.233,6.233,0,1,0,6.233,6.233A6.235,6.235,0,0,0,765.57,521m-20.778,0a6.233,6.233,0,1,0,6.237,6.233A6.235,6.235,0,0,0,744.792,521m-20.775,0a6.233,6.233,0,1,0,6.233,6.233A6.235,6.235,0,0,0,724.017,521m-20.775,0a6.233,6.233,0,1,0,6.233,6.233A6.232,6.232,0,0,0,703.242,521m-20.778,0a6.233,6.233,0,1,0,6.233,6.233A6.235,6.235,0,0,0,682.464,521m-20.775,0a6.233,6.233,0,1,0,6.233,6.233A6.232,6.232,0,0,0,661.689,521m-20.778,0a6.233,6.233,0,1,0,6.233,6.233A6.235,6.235,0,0,0,640.911,521m-20.775,0a6.233,6.233,0,1,0,6.233,6.233A6.234,6.234,0,0,0,620.136,521m332.423-20.775a6.233,6.233,0,1,0,6.233,6.233,6.23,6.23,0,0,0-6.233-6.233m-20.778,0a6.233,6.233,0,1,0,6.233,6.233,6.232,6.232,0,0,0-6.233-6.233m-20.775,0a6.233,6.233,0,1,0,6.233,6.233,6.23,6.23,0,0,0-6.233-6.233m-20.778,0a6.233,6.233,0,1,0,6.233,6.233,6.232,6.232,0,0,0-6.233-6.233m-20.775,0a6.233,6.233,0,1,0,6.233,6.233,6.232,6.232,0,0,0-6.233-6.233m-20.775,0a6.233,6.233,0,1,0,6.233,6.233,6.23,6.23,0,0,0-6.233-6.233m-20.778,0a6.233,6.233,0,1,0,6.233,6.233,6.232,6.232,0,0,0-6.233-6.233m-20.775,0a6.233,6.233,0,1,0,6.233,6.233,6.23,6.23,0,0,0-6.233-6.233m-20.779,0a6.233,6.233,0,1,0,6.233,6.233,6.232,6.232,0,0,0-6.233-6.233m-20.775,0a6.233,6.233,0,1,0,6.233,6.233,6.232,6.232,0,0,0-6.233-6.233m-20.778,0a6.233,6.233,0,1,0,6.237,6.233,6.232,6.232,0,0,0-6.237-6.233m-20.775,0a6.233,6.233,0,1,0,6.233,6.233,6.232,6.232,0,0,0-6.233-6.233m-20.775,0a6.233,6.233,0,1,0,6.233,6.233,6.23,6.23,0,0,0-6.233-6.233m-20.778,0a6.233,6.233,0,1,0,6.233,6.233,6.232,6.232,0,0,0-6.233-6.233m-20.775,0a6.233,6.233,0,1,0,6.233,6.233,6.23,6.23,0,0,0-6.233-6.233m-20.778,0a6.233,6.233,0,1,0,6.233,6.233,6.232,6.232,0,0,0-6.233-6.233m-20.775,0a6.233,6.233,0,1,0,6.233,6.233,6.232,6.232,0,0,0-6.233-6.233m332.423-20.778a6.233,6.233,0,1,0,6.233,6.233,6.232,6.232,0,0,0-6.233-6.233m-20.778,0a6.233,6.233,0,1,0,6.233,6.233,6.235,6.235,0,0,0-6.233-6.233m-20.775,0a6.233,6.233,0,1,0,6.233,6.233,6.232,6.232,0,0,0-6.233-6.233m-20.778,0a6.233,6.233,0,1,0,6.233,6.233,6.234,6.234,0,0,0-6.233-6.233m-20.775,0a6.233,6.233,0,1,0,6.233,6.233,6.234,6.234,0,0,0-6.233-6.233m-20.775,0a6.233,6.233,0,1,0,6.233,6.233,6.232,6.232,0,0,0-6.233-6.233m-20.778,0a6.233,6.233,0,1,0,6.233,6.233,6.235,6.235,0,0,0-6.233-6.233m-20.775,0a6.233,6.233,0,1,0,6.233,6.233,6.232,6.232,0,0,0-6.233-6.233m-20.779,0a6.233,6.233,0,1,0,6.233,6.233,6.235,6.235,0,0,0-6.233-6.233m-20.775,0a6.233,6.233,0,1,0,6.233,6.233,6.235,6.235,0,0,0-6.233-6.233m-20.778,0a6.233,6.233,0,1,0,6.237,6.233,6.235,6.235,0,0,0-6.237-6.233m-20.775,0a6.233,6.233,0,1,0,6.233,6.233,6.235,6.235,0,0,0-6.233-6.233m-20.775,0a6.233,6.233,0,1,0,6.233,6.233,6.232,6.232,0,0,0-6.233-6.233m-20.778,0a6.233,6.233,0,1,0,6.233,6.233,6.235,6.235,0,0,0-6.233-6.233m-20.775,0a6.233,6.233,0,1,0,6.233,6.233,6.232,6.232,0,0,0-6.233-6.233m-20.778,0a6.233,6.233,0,1,0,6.233,6.233,6.235,6.235,0,0,0-6.233-6.233m-20.775,0a6.233,6.233,0,1,0,6.233,6.233,6.234,6.234,0,0,0-6.233-6.233m332.423-20.775a6.233,6.233,0,1,0,6.233,6.233,6.23,6.23,0,0,0-6.233-6.233m-20.778,0a6.233,6.233,0,1,0,6.233,6.233,6.232,6.232,0,0,0-6.233-6.233m-20.775,0a6.233,6.233,0,1,0,6.233,6.233,6.23,6.23,0,0,0-6.233-6.233m-20.778,0a6.233,6.233,0,1,0,6.233,6.233,6.232,6.232,0,0,0-6.233-6.233m-20.775,0a6.233,6.233,0,1,0,6.233,6.233,6.232,6.232,0,0,0-6.233-6.233m-20.775,0a6.233,6.233,0,1,0,6.233,6.233,6.23,6.23,0,0,0-6.233-6.233m-20.778,0a6.233,6.233,0,1,0,6.233,6.233,6.232,6.232,0,0,0-6.233-6.233m-20.775,0a6.233,6.233,0,1,0,6.233,6.233,6.23,6.23,0,0,0-6.233-6.233m-20.779,0a6.233,6.233,0,1,0,6.233,6.233,6.232,6.232,0,0,0-6.233-6.233m-20.775,0A6.233,6.233,0,1,0,771.8,464.9a6.232,6.232,0,0,0-6.233-6.233m-20.778,0a6.233,6.233,0,1,0,6.237,6.233,6.232,6.232,0,0,0-6.237-6.233m-20.775,0a6.233,6.233,0,1,0,6.233,6.233,6.232,6.232,0,0,0-6.233-6.233m-20.775,0a6.233,6.233,0,1,0,6.233,6.233,6.23,6.23,0,0,0-6.233-6.233m-20.778,0A6.233,6.233,0,1,0,688.7,464.9a6.232,6.232,0,0,0-6.233-6.233m-20.775,0a6.233,6.233,0,1,0,6.233,6.233,6.23,6.23,0,0,0-6.233-6.233m-20.778,0a6.233,6.233,0,1,0,6.233,6.233,6.232,6.232,0,0,0-6.233-6.233m-20.775,0a6.233,6.233,0,1,0,6.233,6.233,6.232,6.232,0,0,0-6.233-6.233m332.423-20.778a6.233,6.233,0,1,0,6.233,6.233,6.232,6.232,0,0,0-6.233-6.233m-20.778,0a6.233,6.233,0,1,0,6.233,6.233,6.234,6.234,0,0,0-6.233-6.233m-20.775,0a6.233,6.233,0,1,0,6.233,6.233,6.232,6.232,0,0,0-6.233-6.233m-20.778,0a6.233,6.233,0,1,0,6.233,6.233,6.234,6.234,0,0,0-6.233-6.233m-20.775,0a6.233,6.233,0,1,0,6.233,6.233,6.234,6.234,0,0,0-6.233-6.233m-20.775,0a6.233,6.233,0,1,0,6.233,6.233,6.232,6.232,0,0,0-6.233-6.233m-20.778,0a6.233,6.233,0,1,0,6.233,6.233,6.234,6.234,0,0,0-6.233-6.233m-20.775,0a6.233,6.233,0,1,0,6.233,6.233,6.232,6.232,0,0,0-6.233-6.233m-20.779,0a6.233,6.233,0,1,0,6.233,6.233,6.235,6.235,0,0,0-6.233-6.233m-20.775,0a6.233,6.233,0,1,0,6.233,6.233,6.234,6.234,0,0,0-6.233-6.233m-20.778,0a6.233,6.233,0,1,0,6.237,6.233,6.234,6.234,0,0,0-6.237-6.233m-20.775,0a6.233,6.233,0,1,0,6.233,6.233,6.234,6.234,0,0,0-6.233-6.233m-20.775,0a6.233,6.233,0,1,0,6.233,6.233,6.232,6.232,0,0,0-6.233-6.233m-20.778,0a6.233,6.233,0,1,0,6.233,6.233,6.235,6.235,0,0,0-6.233-6.233m-20.775,0a6.233,6.233,0,1,0,6.233,6.233,6.232,6.232,0,0,0-6.233-6.233m-20.778,0a6.233,6.233,0,1,0,6.233,6.233,6.235,6.235,0,0,0-6.233-6.233m-20.775,0a6.233,6.233,0,1,0,6.233,6.233,6.234,6.234,0,0,0-6.233-6.233m332.423-20.775a6.233,6.233,0,1,0,6.233,6.233,6.232,6.232,0,0,0-6.233-6.233m-20.778,0a6.233,6.233,0,1,0,6.233,6.233,6.235,6.235,0,0,0-6.233-6.233m-20.775,0a6.233,6.233,0,1,0,6.233,6.233,6.232,6.232,0,0,0-6.233-6.233m-20.778,0a6.233,6.233,0,1,0,6.233,6.233,6.234,6.234,0,0,0-6.233-6.233m-20.775,0a6.233,6.233,0,1,0,6.233,6.233,6.234,6.234,0,0,0-6.233-6.233m-20.775,0a6.233,6.233,0,1,0,6.233,6.233,6.232,6.232,0,0,0-6.233-6.233m-20.778,0a6.233,6.233,0,1,0,6.233,6.233,6.235,6.235,0,0,0-6.233-6.233m-20.775,0a6.233,6.233,0,1,0,6.233,6.233,6.232,6.232,0,0,0-6.233-6.233m-20.779,0a6.233,6.233,0,1,0,6.233,6.233,6.235,6.235,0,0,0-6.233-6.233m-20.775,0a6.233,6.233,0,1,0,6.233,6.233,6.235,6.235,0,0,0-6.233-6.233m-20.778,0a6.233,6.233,0,1,0,6.237,6.233,6.235,6.235,0,0,0-6.237-6.233m-20.775,0a6.233,6.233,0,1,0,6.233,6.233,6.235,6.235,0,0,0-6.233-6.233m-20.775,0a6.233,6.233,0,1,0,6.233,6.233,6.232,6.232,0,0,0-6.233-6.233m-20.778,0a6.233,6.233,0,1,0,6.233,6.233,6.235,6.235,0,0,0-6.233-6.233m-20.775,0a6.233,6.233,0,1,0,6.233,6.233,6.232,6.232,0,0,0-6.233-6.233m-20.778,0a6.233,6.233,0,1,0,6.233,6.233,6.235,6.235,0,0,0-6.233-6.233m-20.775,0a6.233,6.233,0,1,0,6.233,6.233,6.234,6.234,0,0,0-6.233-6.233m332.423-20.775a6.233,6.233,0,1,0,6.233,6.233,6.23,6.23,0,0,0-6.233-6.233m-20.778,0a6.233,6.233,0,1,0,6.233,6.233,6.232,6.232,0,0,0-6.233-6.233m-20.775,0a6.233,6.233,0,1,0,6.233,6.233,6.23,6.23,0,0,0-6.233-6.233m-20.778,0a6.233,6.233,0,1,0,6.233,6.233,6.232,6.232,0,0,0-6.233-6.233m-20.775,0a6.233,6.233,0,1,0,6.233,6.233,6.232,6.232,0,0,0-6.233-6.233m-20.775,0a6.233,6.233,0,1,0,6.233,6.233,6.23,6.23,0,0,0-6.233-6.233m-20.778,0a6.233,6.233,0,1,0,6.233,6.233,6.232,6.232,0,0,0-6.233-6.233m-20.775,0a6.233,6.233,0,1,0,6.233,6.233,6.23,6.23,0,0,0-6.233-6.233m-20.779,0a6.233,6.233,0,1,0,6.233,6.233,6.232,6.232,0,0,0-6.233-6.233m-20.775,0a6.233,6.233,0,1,0,6.233,6.233,6.232,6.232,0,0,0-6.233-6.233m-20.778,0a6.233,6.233,0,1,0,6.237,6.233,6.232,6.232,0,0,0-6.237-6.233m-20.775,0a6.233,6.233,0,1,0,6.233,6.233,6.232,6.232,0,0,0-6.233-6.233m-20.775,0a6.233,6.233,0,1,0,6.233,6.233,6.23,6.23,0,0,0-6.233-6.233m-20.778,0a6.233,6.233,0,1,0,6.233,6.233,6.232,6.232,0,0,0-6.233-6.233m-20.775,0a6.233,6.233,0,1,0,6.233,6.233,6.23,6.23,0,0,0-6.233-6.233m-20.778,0a6.233,6.233,0,1,0,6.233,6.233,6.232,6.232,0,0,0-6.233-6.233m-20.775,0a6.233,6.233,0,1,0,6.233,6.233,6.232,6.232,0,0,0-6.233-6.233m332.423-20.779a6.233,6.233,0,1,0,6.233,6.233,6.232,6.232,0,0,0-6.233-6.233m-20.778,0a6.233,6.233,0,1,0,6.233,6.233,6.235,6.235,0,0,0-6.233-6.233m-20.775,0a6.233,6.233,0,1,0,6.233,6.233,6.232,6.232,0,0,0-6.233-6.233m-20.778,0a6.233,6.233,0,1,0,6.233,6.233,6.234,6.234,0,0,0-6.233-6.233m-20.775,0a6.233,6.233,0,1,0,6.233,6.233,6.234,6.234,0,0,0-6.233-6.233m-20.775,0a6.233,6.233,0,1,0,6.233,6.233,6.232,6.232,0,0,0-6.233-6.233m-20.778,0a6.233,6.233,0,1,0,6.233,6.233,6.234,6.234,0,0,0-6.233-6.233m-20.775,0a6.233,6.233,0,1,0,6.233,6.233,6.232,6.232,0,0,0-6.233-6.233m-20.779,0a6.233,6.233,0,1,0,6.233,6.233,6.235,6.235,0,0,0-6.233-6.233m-20.775,0a6.233,6.233,0,1,0,6.233,6.233,6.235,6.235,0,0,0-6.233-6.233m-20.778,0a6.233,6.233,0,1,0,6.237,6.233,6.234,6.234,0,0,0-6.237-6.233m-20.775,0a6.233,6.233,0,1,0,6.233,6.233,6.235,6.235,0,0,0-6.233-6.233m-20.775,0a6.233,6.233,0,1,0,6.233,6.233,6.232,6.232,0,0,0-6.233-6.233m-20.778,0a6.233,6.233,0,1,0,6.233,6.233,6.235,6.235,0,0,0-6.233-6.233m-20.775,0a6.233,6.233,0,1,0,6.233,6.233,6.232,6.232,0,0,0-6.233-6.233m-20.778,0a6.233,6.233,0,1,0,6.233,6.233,6.235,6.235,0,0,0-6.233-6.233m-20.775,0a6.233,6.233,0,1,0,6.233,6.233,6.234,6.234,0,0,0-6.233-6.233m332.423-20.775a6.233,6.233,0,1,0,6.233,6.233,6.23,6.23,0,0,0-6.233-6.233m-20.778,0a6.233,6.233,0,1,0,6.233,6.233,6.232,6.232,0,0,0-6.233-6.233m-20.775,0a6.233,6.233,0,1,0,6.233,6.233,6.23,6.23,0,0,0-6.233-6.233m-20.778,0a6.233,6.233,0,1,0,6.233,6.233,6.232,6.232,0,0,0-6.233-6.233m-20.775,0a6.233,6.233,0,1,0,6.233,6.233,6.232,6.232,0,0,0-6.233-6.233m-20.775,0a6.233,6.233,0,1,0,6.233,6.233,6.23,6.23,0,0,0-6.233-6.233m-20.778,0a6.233,6.233,0,1,0,6.233,6.233,6.232,6.232,0,0,0-6.233-6.233m-20.775,0a6.233,6.233,0,1,0,6.233,6.233,6.23,6.23,0,0,0-6.233-6.233m-20.779,0a6.233,6.233,0,1,0,6.233,6.233,6.232,6.232,0,0,0-6.233-6.233m-20.775,0a6.233,6.233,0,1,0,6.233,6.233,6.232,6.232,0,0,0-6.233-6.233m-20.778,0a6.233,6.233,0,1,0,6.237,6.233,6.232,6.232,0,0,0-6.237-6.233m-20.775,0a6.233,6.233,0,1,0,6.233,6.233,6.232,6.232,0,0,0-6.233-6.233m-20.775,0a6.233,6.233,0,1,0,6.233,6.233,6.23,6.23,0,0,0-6.233-6.233m-20.778,0a6.233,6.233,0,1,0,6.233,6.233,6.232,6.232,0,0,0-6.233-6.233m-20.775,0a6.233,6.233,0,1,0,6.233,6.233,6.23,6.23,0,0,0-6.233-6.233m-20.778,0a6.233,6.233,0,1,0,6.233,6.233,6.232,6.232,0,0,0-6.233-6.233m-20.775,0a6.233,6.233,0,1,0,6.233,6.233,6.232,6.232,0,0,0-6.233-6.233m332.423-20.779a6.233,6.233,0,1,0,6.233,6.233,6.232,6.232,0,0,0-6.233-6.233m-20.778,0a6.233,6.233,0,1,0,6.233,6.233,6.234,6.234,0,0,0-6.233-6.233m-20.775,0a6.233,6.233,0,1,0,6.233,6.233,6.232,6.232,0,0,0-6.233-6.233m-20.778,0a6.233,6.233,0,1,0,6.233,6.233,6.234,6.234,0,0,0-6.233-6.233m-20.775,0a6.233,6.233,0,1,0,6.233,6.233,6.234,6.234,0,0,0-6.233-6.233m-20.775,0a6.233,6.233,0,1,0,6.233,6.233,6.232,6.232,0,0,0-6.233-6.233m-20.778,0a6.233,6.233,0,1,0,6.233,6.233,6.234,6.234,0,0,0-6.233-6.233m-20.775,0a6.233,6.233,0,1,0,6.233,6.233,6.232,6.232,0,0,0-6.233-6.233m-20.779,0a6.233,6.233,0,1,0,6.233,6.233,6.235,6.235,0,0,0-6.233-6.233m-20.775,0a6.233,6.233,0,1,0,6.233,6.233,6.234,6.234,0,0,0-6.233-6.233m-20.778,0a6.233,6.233,0,1,0,6.237,6.233,6.234,6.234,0,0,0-6.237-6.233m-20.775,0a6.233,6.233,0,1,0,6.233,6.233,6.234,6.234,0,0,0-6.233-6.233m-20.775,0a6.233,6.233,0,1,0,6.233,6.233,6.232,6.232,0,0,0-6.233-6.233m-20.778,0a6.233,6.233,0,1,0,6.233,6.233,6.235,6.235,0,0,0-6.233-6.233m-20.775,0a6.233,6.233,0,1,0,6.233,6.233,6.232,6.232,0,0,0-6.233-6.233m-20.778,0a6.233,6.233,0,1,0,6.233,6.233,6.235,6.235,0,0,0-6.233-6.233m-20.775,0a6.233,6.233,0,1,0,6.233,6.233,6.234,6.234,0,0,0-6.233-6.233m332.423-20.775a6.233,6.233,0,1,0,6.233,6.233,6.232,6.232,0,0,0-6.233-6.233m-20.778,0a6.233,6.233,0,1,0,6.233,6.233,6.235,6.235,0,0,0-6.233-6.233m-20.775,0a6.233,6.233,0,1,0,6.233,6.233,6.232,6.232,0,0,0-6.233-6.233m-20.778,0a6.233,6.233,0,1,0,6.233,6.233,6.234,6.234,0,0,0-6.233-6.233m-20.775,0a6.233,6.233,0,1,0,6.233,6.233,6.234,6.234,0,0,0-6.233-6.233m-20.775,0a6.233,6.233,0,1,0,6.233,6.233,6.232,6.232,0,0,0-6.233-6.233m-20.778,0a6.233,6.233,0,1,0,6.233,6.233,6.235,6.235,0,0,0-6.233-6.233m-20.775,0a6.233,6.233,0,1,0,6.233,6.233,6.232,6.232,0,0,0-6.233-6.233m-20.779,0a6.233,6.233,0,1,0,6.233,6.233,6.235,6.235,0,0,0-6.233-6.233m-20.775,0a6.233,6.233,0,1,0,6.233,6.233,6.235,6.235,0,0,0-6.233-6.233m-20.778,0a6.233,6.233,0,1,0,6.237,6.233,6.234,6.234,0,0,0-6.237-6.233m-20.775,0a6.233,6.233,0,1,0,6.233,6.233,6.235,6.235,0,0,0-6.233-6.233m-20.775,0a6.233,6.233,0,1,0,6.233,6.233,6.232,6.232,0,0,0-6.233-6.233m-20.778,0a6.233,6.233,0,1,0,6.233,6.233,6.235,6.235,0,0,0-6.233-6.233m-20.775,0a6.233,6.233,0,1,0,6.233,6.233,6.232,6.232,0,0,0-6.233-6.233m-20.778,0a6.233,6.233,0,1,0,6.233,6.233,6.235,6.235,0,0,0-6.233-6.233m-14.542,6.233a6.233,6.233,0,1,1-6.233-6.233,6.235,6.235,0,0,1,6.233,6.233" transform="translate(463.825 -734.526)" fill="#b4e8f2"/>
      <path id="路径_5780" data-name="路径 5780" d="M946.326,319.466a6.233,6.233,0,1,0,6.233-6.233,6.232,6.232,0,0,0-6.233,6.233m0,20.775a6.233,6.233,0,1,0,6.233-6.233,6.23,6.23,0,0,0-6.233,6.233m6.233,305.411a6.235,6.235,0,1,0,6.233,6.237,6.233,6.233,0,0,0-6.233-6.237m-20.778,0a6.235,6.235,0,1,0,6.233,6.237,6.235,6.235,0,0,0-6.233-6.237m-20.775,0a6.235,6.235,0,1,0,6.233,6.237,6.233,6.233,0,0,0-6.233-6.237m-20.778,0a6.235,6.235,0,1,0,6.233,6.237,6.235,6.235,0,0,0-6.233-6.237m-20.775,0a6.235,6.235,0,1,0,6.233,6.237,6.235,6.235,0,0,0-6.233-6.237m-20.775,0a6.235,6.235,0,1,0,6.233,6.237,6.233,6.233,0,0,0-6.233-6.237m-20.778,0a6.235,6.235,0,1,0,6.233,6.237,6.235,6.235,0,0,0-6.233-6.237m-20.775,0a6.235,6.235,0,1,0,6.233,6.237,6.233,6.233,0,0,0-6.233-6.237m-20.779,0a6.235,6.235,0,1,0,6.233,6.237,6.236,6.236,0,0,0-6.233-6.237m-20.775,0a6.235,6.235,0,1,0,6.233,6.237,6.235,6.235,0,0,0-6.233-6.237m-20.778,0a6.235,6.235,0,1,0,6.237,6.237,6.235,6.235,0,0,0-6.237-6.237m-20.775,0a6.235,6.235,0,1,0,6.233,6.237,6.235,6.235,0,0,0-6.233-6.237m-20.775,0a6.235,6.235,0,1,0,6.233,6.237,6.233,6.233,0,0,0-6.233-6.237m-20.778,0a6.235,6.235,0,1,0,6.233,6.237,6.236,6.236,0,0,0-6.233-6.237m-20.775,0a6.235,6.235,0,1,0,6.233,6.237,6.233,6.233,0,0,0-6.233-6.237m-20.778,0a6.235,6.235,0,1,0,6.233,6.237,6.236,6.236,0,0,0-6.233-6.237m-20.775,0a6.235,6.235,0,1,0,6.233,6.237,6.235,6.235,0,0,0-6.233-6.237m332.423-20.775a6.233,6.233,0,1,0,6.233,6.233,6.232,6.232,0,0,0-6.233-6.233m-20.778,0a6.233,6.233,0,1,0,6.233,6.233,6.235,6.235,0,0,0-6.233-6.233m-20.775,0a6.233,6.233,0,1,0,6.233,6.233,6.232,6.232,0,0,0-6.233-6.233m-20.778,0a6.233,6.233,0,1,0,6.233,6.233,6.234,6.234,0,0,0-6.233-6.233m-20.775,0a6.233,6.233,0,1,0,6.233,6.233,6.234,6.234,0,0,0-6.233-6.233m-20.775,0a6.233,6.233,0,1,0,6.233,6.233,6.232,6.232,0,0,0-6.233-6.233m-20.778,0a6.233,6.233,0,1,0,6.233,6.233,6.235,6.235,0,0,0-6.233-6.233m-20.775,0a6.233,6.233,0,1,0,6.233,6.233,6.232,6.232,0,0,0-6.233-6.233m-20.779,0a6.233,6.233,0,1,0,6.233,6.233,6.235,6.235,0,0,0-6.233-6.233m-20.775,0a6.233,6.233,0,1,0,6.233,6.233,6.235,6.235,0,0,0-6.233-6.233m-20.778,0a6.233,6.233,0,1,0,6.237,6.233,6.235,6.235,0,0,0-6.237-6.233m-20.775,0a6.233,6.233,0,1,0,6.233,6.233,6.235,6.235,0,0,0-6.233-6.233m-20.775,0a6.233,6.233,0,1,0,6.233,6.233,6.232,6.232,0,0,0-6.233-6.233m-20.778,0a6.233,6.233,0,1,0,6.233,6.233,6.235,6.235,0,0,0-6.233-6.233m-20.775,0a6.233,6.233,0,1,0,6.233,6.233,6.232,6.232,0,0,0-6.233-6.233m-20.778,0a6.233,6.233,0,1,0,6.233,6.233,6.235,6.235,0,0,0-6.233-6.233m-20.775,0a6.233,6.233,0,1,0,6.233,6.233,6.234,6.234,0,0,0-6.233-6.233M952.558,604.1a6.233,6.233,0,1,0,6.233,6.233,6.23,6.23,0,0,0-6.233-6.233m-20.778,0a6.233,6.233,0,1,0,6.233,6.233,6.232,6.232,0,0,0-6.233-6.233m-20.775,0a6.233,6.233,0,1,0,6.233,6.233,6.23,6.23,0,0,0-6.233-6.233m-20.778,0a6.233,6.233,0,1,0,6.233,6.233,6.232,6.232,0,0,0-6.233-6.233m-20.775,0a6.233,6.233,0,1,0,6.233,6.233,6.232,6.232,0,0,0-6.233-6.233m-20.775,0a6.233,6.233,0,1,0,6.233,6.233,6.23,6.23,0,0,0-6.233-6.233m-20.778,0a6.233,6.233,0,1,0,6.233,6.233A6.232,6.232,0,0,0,827.9,604.1m-20.775,0a6.233,6.233,0,1,0,6.233,6.233,6.23,6.23,0,0,0-6.233-6.233m-20.779,0a6.233,6.233,0,1,0,6.233,6.233,6.232,6.232,0,0,0-6.233-6.233m-20.775,0a6.233,6.233,0,1,0,6.233,6.233,6.232,6.232,0,0,0-6.233-6.233m-20.778,0a6.233,6.233,0,1,0,6.237,6.233,6.232,6.232,0,0,0-6.237-6.233m-20.775,0a6.233,6.233,0,1,0,6.233,6.233,6.232,6.232,0,0,0-6.233-6.233m-20.775,0a6.233,6.233,0,1,0,6.233,6.233,6.23,6.23,0,0,0-6.233-6.233m-20.778,0a6.233,6.233,0,1,0,6.233,6.233,6.232,6.232,0,0,0-6.233-6.233m-20.775,0a6.233,6.233,0,1,0,6.233,6.233,6.23,6.23,0,0,0-6.233-6.233m-20.778,0a6.233,6.233,0,1,0,6.233,6.233,6.232,6.232,0,0,0-6.233-6.233m-20.775,0a6.233,6.233,0,1,0,6.233,6.233,6.232,6.232,0,0,0-6.233-6.233m332.423-20.778a6.233,6.233,0,1,0,6.233,6.233,6.232,6.232,0,0,0-6.233-6.233m-20.778,0a6.233,6.233,0,1,0,6.233,6.233,6.234,6.234,0,0,0-6.233-6.233m-20.775,0a6.233,6.233,0,1,0,6.233,6.233,6.232,6.232,0,0,0-6.233-6.233m-20.778,0a6.233,6.233,0,1,0,6.233,6.233,6.234,6.234,0,0,0-6.233-6.233m-20.775,0a6.233,6.233,0,1,0,6.233,6.233,6.234,6.234,0,0,0-6.233-6.233m-20.775,0a6.233,6.233,0,1,0,6.233,6.233,6.232,6.232,0,0,0-6.233-6.233m-20.778,0a6.233,6.233,0,1,0,6.233,6.233,6.234,6.234,0,0,0-6.233-6.233m-20.775,0a6.233,6.233,0,1,0,6.233,6.233,6.232,6.232,0,0,0-6.233-6.233m-20.779,0a6.233,6.233,0,1,0,6.233,6.233,6.235,6.235,0,0,0-6.233-6.233m-20.775,0a6.233,6.233,0,1,0,6.233,6.233,6.235,6.235,0,0,0-6.233-6.233m-20.778,0a6.233,6.233,0,1,0,6.237,6.233,6.234,6.234,0,0,0-6.237-6.233m-20.775,0a6.233,6.233,0,1,0,6.233,6.233,6.235,6.235,0,0,0-6.233-6.233m-20.775,0a6.233,6.233,0,1,0,6.233,6.233,6.232,6.232,0,0,0-6.233-6.233m-20.778,0a6.233,6.233,0,1,0,6.233,6.233,6.235,6.235,0,0,0-6.233-6.233m-20.775,0a6.233,6.233,0,1,0,6.233,6.233,6.232,6.232,0,0,0-6.233-6.233m-20.778,0a6.233,6.233,0,1,0,6.233,6.233,6.235,6.235,0,0,0-6.233-6.233m-20.775,0a6.233,6.233,0,1,0,6.233,6.233,6.234,6.234,0,0,0-6.233-6.233m332.423-20.775a6.233,6.233,0,1,0,6.233,6.233,6.232,6.232,0,0,0-6.233-6.233m-20.778,0a6.233,6.233,0,1,0,6.233,6.233,6.235,6.235,0,0,0-6.233-6.233m-20.775,0a6.233,6.233,0,1,0,6.233,6.233,6.232,6.232,0,0,0-6.233-6.233m-20.778,0a6.233,6.233,0,1,0,6.233,6.233,6.234,6.234,0,0,0-6.233-6.233m-20.775,0a6.233,6.233,0,1,0,6.233,6.233,6.234,6.234,0,0,0-6.233-6.233m-20.775,0a6.233,6.233,0,1,0,6.233,6.233,6.232,6.232,0,0,0-6.233-6.233m-20.778,0a6.233,6.233,0,1,0,6.233,6.233,6.235,6.235,0,0,0-6.233-6.233m-20.775,0a6.233,6.233,0,1,0,6.233,6.233,6.232,6.232,0,0,0-6.233-6.233m-20.779,0a6.233,6.233,0,1,0,6.233,6.233,6.235,6.235,0,0,0-6.233-6.233m-20.775,0a6.233,6.233,0,1,0,6.233,6.233,6.235,6.235,0,0,0-6.233-6.233m-20.778,0a6.233,6.233,0,1,0,6.237,6.233,6.234,6.234,0,0,0-6.237-6.233m-20.775,0a6.233,6.233,0,1,0,6.233,6.233,6.235,6.235,0,0,0-6.233-6.233m-20.775,0a6.233,6.233,0,1,0,6.233,6.233,6.232,6.232,0,0,0-6.233-6.233m-20.778,0a6.233,6.233,0,1,0,6.233,6.233,6.235,6.235,0,0,0-6.233-6.233m-20.775,0a6.233,6.233,0,1,0,6.233,6.233,6.232,6.232,0,0,0-6.233-6.233m-20.778,0a6.233,6.233,0,1,0,6.233,6.233,6.235,6.235,0,0,0-6.233-6.233m-20.775,0a6.233,6.233,0,1,0,6.233,6.233,6.234,6.234,0,0,0-6.233-6.233m332.423-20.778a6.235,6.235,0,1,0,6.233,6.236,6.233,6.233,0,0,0-6.233-6.236m-20.778,0a6.235,6.235,0,1,0,6.233,6.236,6.235,6.235,0,0,0-6.233-6.236m-20.775,0a6.235,6.235,0,1,0,6.233,6.236,6.233,6.233,0,0,0-6.233-6.236m-20.778,0a6.235,6.235,0,1,0,6.233,6.236,6.235,6.235,0,0,0-6.233-6.236m-20.775,0a6.235,6.235,0,1,0,6.233,6.236,6.235,6.235,0,0,0-6.233-6.236m-20.775,0a6.235,6.235,0,1,0,6.233,6.236,6.233,6.233,0,0,0-6.233-6.236m-20.778,0a6.235,6.235,0,1,0,6.233,6.236,6.235,6.235,0,0,0-6.233-6.236m-20.775,0a6.235,6.235,0,1,0,6.233,6.236,6.233,6.233,0,0,0-6.233-6.236m-20.779,0a6.235,6.235,0,1,0,6.233,6.236,6.235,6.235,0,0,0-6.233-6.236m-20.775,0a6.235,6.235,0,1,0,6.233,6.236,6.235,6.235,0,0,0-6.233-6.236m-20.778,0a6.235,6.235,0,1,0,6.237,6.236,6.235,6.235,0,0,0-6.237-6.236m-20.775,0a6.235,6.235,0,1,0,6.233,6.236,6.235,6.235,0,0,0-6.233-6.236m-20.775,0a6.235,6.235,0,1,0,6.233,6.236,6.233,6.233,0,0,0-6.233-6.236m-20.778,0a6.235,6.235,0,1,0,6.233,6.236,6.235,6.235,0,0,0-6.233-6.236m-20.775,0a6.235,6.235,0,1,0,6.233,6.236,6.233,6.233,0,0,0-6.233-6.236m-20.778,0a6.235,6.235,0,1,0,6.233,6.236,6.235,6.235,0,0,0-6.233-6.236m-20.775,0a6.235,6.235,0,1,0,6.233,6.236,6.235,6.235,0,0,0-6.233-6.236M952.558,521a6.233,6.233,0,1,0,6.233,6.233A6.232,6.232,0,0,0,952.558,521m-20.778,0a6.233,6.233,0,1,0,6.233,6.233A6.235,6.235,0,0,0,931.78,521m-20.775,0a6.233,6.233,0,1,0,6.233,6.233A6.232,6.232,0,0,0,911.005,521m-20.778,0a6.233,6.233,0,1,0,6.233,6.233A6.234,6.234,0,0,0,890.227,521m-20.775,0a6.233,6.233,0,1,0,6.233,6.233A6.234,6.234,0,0,0,869.452,521m-20.775,0a6.233,6.233,0,1,0,6.233,6.233A6.232,6.232,0,0,0,848.677,521M827.9,521a6.233,6.233,0,1,0,6.233,6.233A6.235,6.235,0,0,0,827.9,521m-20.775,0a6.233,6.233,0,1,0,6.233,6.233A6.232,6.232,0,0,0,807.124,521m-20.779,0a6.233,6.233,0,1,0,6.233,6.233A6.235,6.235,0,0,0,786.345,521m-20.775,0a6.233,6.233,0,1,0,6.233,6.233A6.235,6.235,0,0,0,765.57,521m-20.778,0a6.233,6.233,0,1,0,6.237,6.233A6.235,6.235,0,0,0,744.792,521m-20.775,0a6.233,6.233,0,1,0,6.233,6.233A6.235,6.235,0,0,0,724.017,521m-20.775,0a6.233,6.233,0,1,0,6.233,6.233A6.232,6.232,0,0,0,703.242,521m-20.778,0a6.233,6.233,0,1,0,6.233,6.233A6.235,6.235,0,0,0,682.464,521m-20.775,0a6.233,6.233,0,1,0,6.233,6.233A6.232,6.232,0,0,0,661.689,521m-20.778,0a6.233,6.233,0,1,0,6.233,6.233A6.235,6.235,0,0,0,640.911,521m-20.775,0a6.233,6.233,0,1,0,6.233,6.233A6.234,6.234,0,0,0,620.136,521m332.423-20.775a6.233,6.233,0,1,0,6.233,6.233,6.23,6.23,0,0,0-6.233-6.233m-20.778,0a6.233,6.233,0,1,0,6.233,6.233,6.232,6.232,0,0,0-6.233-6.233m-20.775,0a6.233,6.233,0,1,0,6.233,6.233,6.23,6.23,0,0,0-6.233-6.233m-20.778,0a6.233,6.233,0,1,0,6.233,6.233,6.232,6.232,0,0,0-6.233-6.233m-20.775,0a6.233,6.233,0,1,0,6.233,6.233,6.232,6.232,0,0,0-6.233-6.233m-20.775,0a6.233,6.233,0,1,0,6.233,6.233,6.23,6.23,0,0,0-6.233-6.233m-20.778,0a6.233,6.233,0,1,0,6.233,6.233,6.232,6.232,0,0,0-6.233-6.233m-20.775,0a6.233,6.233,0,1,0,6.233,6.233,6.23,6.23,0,0,0-6.233-6.233m-20.779,0a6.233,6.233,0,1,0,6.233,6.233,6.232,6.232,0,0,0-6.233-6.233m-20.775,0a6.233,6.233,0,1,0,6.233,6.233,6.232,6.232,0,0,0-6.233-6.233m-20.778,0a6.233,6.233,0,1,0,6.237,6.233,6.232,6.232,0,0,0-6.237-6.233m-20.775,0a6.233,6.233,0,1,0,6.233,6.233,6.232,6.232,0,0,0-6.233-6.233m-20.775,0a6.233,6.233,0,1,0,6.233,6.233,6.23,6.23,0,0,0-6.233-6.233m-20.778,0a6.233,6.233,0,1,0,6.233,6.233,6.232,6.232,0,0,0-6.233-6.233m-20.775,0a6.233,6.233,0,1,0,6.233,6.233,6.23,6.23,0,0,0-6.233-6.233m-20.778,0a6.233,6.233,0,1,0,6.233,6.233,6.232,6.232,0,0,0-6.233-6.233m-20.775,0a6.233,6.233,0,1,0,6.233,6.233,6.232,6.232,0,0,0-6.233-6.233m332.423-20.778a6.233,6.233,0,1,0,6.233,6.233,6.232,6.232,0,0,0-6.233-6.233m-20.778,0a6.233,6.233,0,1,0,6.233,6.233,6.235,6.235,0,0,0-6.233-6.233m-20.775,0a6.233,6.233,0,1,0,6.233,6.233,6.232,6.232,0,0,0-6.233-6.233m-20.778,0a6.233,6.233,0,1,0,6.233,6.233,6.234,6.234,0,0,0-6.233-6.233m-20.775,0a6.233,6.233,0,1,0,6.233,6.233,6.234,6.234,0,0,0-6.233-6.233m-20.775,0a6.233,6.233,0,1,0,6.233,6.233,6.232,6.232,0,0,0-6.233-6.233m-20.778,0a6.233,6.233,0,1,0,6.233,6.233,6.235,6.235,0,0,0-6.233-6.233m-20.775,0a6.233,6.233,0,1,0,6.233,6.233,6.232,6.232,0,0,0-6.233-6.233m-20.779,0a6.233,6.233,0,1,0,6.233,6.233,6.235,6.235,0,0,0-6.233-6.233m-20.775,0a6.233,6.233,0,1,0,6.233,6.233,6.235,6.235,0,0,0-6.233-6.233m-20.778,0a6.233,6.233,0,1,0,6.237,6.233,6.235,6.235,0,0,0-6.237-6.233m-20.775,0a6.233,6.233,0,1,0,6.233,6.233,6.235,6.235,0,0,0-6.233-6.233m-20.775,0a6.233,6.233,0,1,0,6.233,6.233,6.232,6.232,0,0,0-6.233-6.233m-20.778,0a6.233,6.233,0,1,0,6.233,6.233,6.235,6.235,0,0,0-6.233-6.233m-20.775,0a6.233,6.233,0,1,0,6.233,6.233,6.232,6.232,0,0,0-6.233-6.233m-20.778,0a6.233,6.233,0,1,0,6.233,6.233,6.235,6.235,0,0,0-6.233-6.233m-20.775,0a6.233,6.233,0,1,0,6.233,6.233,6.234,6.234,0,0,0-6.233-6.233m332.423-20.775a6.233,6.233,0,1,0,6.233,6.233,6.23,6.23,0,0,0-6.233-6.233m-20.778,0a6.233,6.233,0,1,0,6.233,6.233,6.232,6.232,0,0,0-6.233-6.233m-20.775,0a6.233,6.233,0,1,0,6.233,6.233,6.23,6.23,0,0,0-6.233-6.233m-20.778,0a6.233,6.233,0,1,0,6.233,6.233,6.232,6.232,0,0,0-6.233-6.233m-20.775,0a6.233,6.233,0,1,0,6.233,6.233,6.232,6.232,0,0,0-6.233-6.233m-20.775,0a6.233,6.233,0,1,0,6.233,6.233,6.23,6.23,0,0,0-6.233-6.233m-20.778,0a6.233,6.233,0,1,0,6.233,6.233,6.232,6.232,0,0,0-6.233-6.233m-20.775,0a6.233,6.233,0,1,0,6.233,6.233,6.23,6.23,0,0,0-6.233-6.233m-20.779,0a6.233,6.233,0,1,0,6.233,6.233,6.232,6.232,0,0,0-6.233-6.233m-20.775,0A6.233,6.233,0,1,0,771.8,464.9a6.232,6.232,0,0,0-6.233-6.233m-20.778,0a6.233,6.233,0,1,0,6.237,6.233,6.232,6.232,0,0,0-6.237-6.233m-20.775,0a6.233,6.233,0,1,0,6.233,6.233,6.232,6.232,0,0,0-6.233-6.233m-20.775,0a6.233,6.233,0,1,0,6.233,6.233,6.23,6.23,0,0,0-6.233-6.233m-20.778,0A6.233,6.233,0,1,0,688.7,464.9a6.232,6.232,0,0,0-6.233-6.233m-20.775,0a6.233,6.233,0,1,0,6.233,6.233,6.23,6.23,0,0,0-6.233-6.233m-20.778,0a6.233,6.233,0,1,0,6.233,6.233,6.232,6.232,0,0,0-6.233-6.233m-20.775,0a6.233,6.233,0,1,0,6.233,6.233,6.232,6.232,0,0,0-6.233-6.233m332.423-20.778a6.233,6.233,0,1,0,6.233,6.233,6.232,6.232,0,0,0-6.233-6.233m-20.778,0a6.233,6.233,0,1,0,6.233,6.233,6.234,6.234,0,0,0-6.233-6.233m-20.775,0a6.233,6.233,0,1,0,6.233,6.233,6.232,6.232,0,0,0-6.233-6.233m-20.778,0a6.233,6.233,0,1,0,6.233,6.233,6.234,6.234,0,0,0-6.233-6.233m-20.775,0a6.233,6.233,0,1,0,6.233,6.233,6.234,6.234,0,0,0-6.233-6.233m-20.775,0a6.233,6.233,0,1,0,6.233,6.233,6.232,6.232,0,0,0-6.233-6.233m-20.778,0a6.233,6.233,0,1,0,6.233,6.233,6.234,6.234,0,0,0-6.233-6.233m-20.775,0a6.233,6.233,0,1,0,6.233,6.233,6.232,6.232,0,0,0-6.233-6.233m-20.779,0a6.233,6.233,0,1,0,6.233,6.233,6.235,6.235,0,0,0-6.233-6.233m-20.775,0a6.233,6.233,0,1,0,6.233,6.233,6.234,6.234,0,0,0-6.233-6.233m-20.778,0a6.233,6.233,0,1,0,6.237,6.233,6.234,6.234,0,0,0-6.237-6.233m-20.775,0a6.233,6.233,0,1,0,6.233,6.233,6.234,6.234,0,0,0-6.233-6.233m-20.775,0a6.233,6.233,0,1,0,6.233,6.233,6.232,6.232,0,0,0-6.233-6.233m-20.778,0a6.233,6.233,0,1,0,6.233,6.233,6.235,6.235,0,0,0-6.233-6.233m-20.775,0a6.233,6.233,0,1,0,6.233,6.233,6.232,6.232,0,0,0-6.233-6.233m-20.778,0a6.233,6.233,0,1,0,6.233,6.233,6.235,6.235,0,0,0-6.233-6.233m-20.775,0a6.233,6.233,0,1,0,6.233,6.233,6.234,6.234,0,0,0-6.233-6.233m332.423-20.775a6.233,6.233,0,1,0,6.233,6.233,6.232,6.232,0,0,0-6.233-6.233m-20.778,0a6.233,6.233,0,1,0,6.233,6.233,6.235,6.235,0,0,0-6.233-6.233m-20.775,0a6.233,6.233,0,1,0,6.233,6.233,6.232,6.232,0,0,0-6.233-6.233m-20.778,0a6.233,6.233,0,1,0,6.233,6.233,6.234,6.234,0,0,0-6.233-6.233m-20.775,0a6.233,6.233,0,1,0,6.233,6.233,6.234,6.234,0,0,0-6.233-6.233m-20.775,0a6.233,6.233,0,1,0,6.233,6.233,6.232,6.232,0,0,0-6.233-6.233m-20.778,0a6.233,6.233,0,1,0,6.233,6.233,6.235,6.235,0,0,0-6.233-6.233m-20.775,0a6.233,6.233,0,1,0,6.233,6.233,6.232,6.232,0,0,0-6.233-6.233m-20.779,0a6.233,6.233,0,1,0,6.233,6.233,6.235,6.235,0,0,0-6.233-6.233m-20.775,0a6.233,6.233,0,1,0,6.233,6.233,6.235,6.235,0,0,0-6.233-6.233m-20.778,0a6.233,6.233,0,1,0,6.237,6.233,6.235,6.235,0,0,0-6.237-6.233m-20.775,0a6.233,6.233,0,1,0,6.233,6.233,6.235,6.235,0,0,0-6.233-6.233m-20.775,0a6.233,6.233,0,1,0,6.233,6.233,6.232,6.232,0,0,0-6.233-6.233m-20.778,0a6.233,6.233,0,1,0,6.233,6.233,6.235,6.235,0,0,0-6.233-6.233m-20.775,0a6.233,6.233,0,1,0,6.233,6.233,6.232,6.232,0,0,0-6.233-6.233m-20.778,0a6.233,6.233,0,1,0,6.233,6.233,6.235,6.235,0,0,0-6.233-6.233m-20.775,0a6.233,6.233,0,1,0,6.233,6.233,6.234,6.234,0,0,0-6.233-6.233m332.423-20.775a6.233,6.233,0,1,0,6.233,6.233,6.23,6.23,0,0,0-6.233-6.233m-20.778,0a6.233,6.233,0,1,0,6.233,6.233,6.232,6.232,0,0,0-6.233-6.233m-20.775,0a6.233,6.233,0,1,0,6.233,6.233,6.23,6.23,0,0,0-6.233-6.233m-20.778,0a6.233,6.233,0,1,0,6.233,6.233,6.232,6.232,0,0,0-6.233-6.233m-20.775,0a6.233,6.233,0,1,0,6.233,6.233,6.232,6.232,0,0,0-6.233-6.233m-20.775,0a6.233,6.233,0,1,0,6.233,6.233,6.23,6.23,0,0,0-6.233-6.233m-20.778,0a6.233,6.233,0,1,0,6.233,6.233,6.232,6.232,0,0,0-6.233-6.233m-20.775,0a6.233,6.233,0,1,0,6.233,6.233,6.23,6.23,0,0,0-6.233-6.233m-20.779,0a6.233,6.233,0,1,0,6.233,6.233,6.232,6.232,0,0,0-6.233-6.233m-20.775,0a6.233,6.233,0,1,0,6.233,6.233,6.232,6.232,0,0,0-6.233-6.233m-20.778,0a6.233,6.233,0,1,0,6.237,6.233,6.232,6.232,0,0,0-6.237-6.233m-20.775,0a6.233,6.233,0,1,0,6.233,6.233,6.232,6.232,0,0,0-6.233-6.233m-20.775,0a6.233,6.233,0,1,0,6.233,6.233,6.23,6.23,0,0,0-6.233-6.233m-20.778,0a6.233,6.233,0,1,0,6.233,6.233,6.232,6.232,0,0,0-6.233-6.233m-20.775,0a6.233,6.233,0,1,0,6.233,6.233,6.23,6.23,0,0,0-6.233-6.233m-20.778,0a6.233,6.233,0,1,0,6.233,6.233,6.232,6.232,0,0,0-6.233-6.233m-20.775,0a6.233,6.233,0,1,0,6.233,6.233,6.232,6.232,0,0,0-6.233-6.233m332.423-20.779a6.233,6.233,0,1,0,6.233,6.233,6.232,6.232,0,0,0-6.233-6.233m-20.778,0a6.233,6.233,0,1,0,6.233,6.233,6.235,6.235,0,0,0-6.233-6.233m-20.775,0a6.233,6.233,0,1,0,6.233,6.233,6.232,6.232,0,0,0-6.233-6.233m-20.778,0a6.233,6.233,0,1,0,6.233,6.233,6.234,6.234,0,0,0-6.233-6.233m-20.775,0a6.233,6.233,0,1,0,6.233,6.233,6.234,6.234,0,0,0-6.233-6.233m-20.775,0a6.233,6.233,0,1,0,6.233,6.233,6.232,6.232,0,0,0-6.233-6.233m-20.778,0a6.233,6.233,0,1,0,6.233,6.233,6.234,6.234,0,0,0-6.233-6.233m-20.775,0a6.233,6.233,0,1,0,6.233,6.233,6.232,6.232,0,0,0-6.233-6.233m-20.779,0a6.233,6.233,0,1,0,6.233,6.233,6.235,6.235,0,0,0-6.233-6.233m-20.775,0a6.233,6.233,0,1,0,6.233,6.233,6.235,6.235,0,0,0-6.233-6.233m-20.778,0a6.233,6.233,0,1,0,6.237,6.233,6.234,6.234,0,0,0-6.237-6.233m-20.775,0a6.233,6.233,0,1,0,6.233,6.233,6.235,6.235,0,0,0-6.233-6.233m-20.775,0a6.233,6.233,0,1,0,6.233,6.233,6.232,6.232,0,0,0-6.233-6.233m-20.778,0a6.233,6.233,0,1,0,6.233,6.233,6.235,6.235,0,0,0-6.233-6.233m-20.775,0a6.233,6.233,0,1,0,6.233,6.233,6.232,6.232,0,0,0-6.233-6.233m-20.778,0a6.233,6.233,0,1,0,6.233,6.233,6.235,6.235,0,0,0-6.233-6.233m-20.775,0a6.233,6.233,0,1,0,6.233,6.233,6.234,6.234,0,0,0-6.233-6.233m332.423-20.775a6.233,6.233,0,1,0,6.233,6.233,6.23,6.23,0,0,0-6.233-6.233m-20.778,0a6.233,6.233,0,1,0,6.233,6.233,6.232,6.232,0,0,0-6.233-6.233m-20.775,0a6.233,6.233,0,1,0,6.233,6.233,6.23,6.23,0,0,0-6.233-6.233m-20.778,0a6.233,6.233,0,1,0,6.233,6.233,6.232,6.232,0,0,0-6.233-6.233m-20.775,0a6.233,6.233,0,1,0,6.233,6.233,6.232,6.232,0,0,0-6.233-6.233m-20.775,0a6.233,6.233,0,1,0,6.233,6.233,6.23,6.23,0,0,0-6.233-6.233m-20.778,0a6.233,6.233,0,1,0,6.233,6.233,6.232,6.232,0,0,0-6.233-6.233m-20.775,0a6.233,6.233,0,1,0,6.233,6.233,6.23,6.23,0,0,0-6.233-6.233m-20.779,0a6.233,6.233,0,1,0,6.233,6.233,6.232,6.232,0,0,0-6.233-6.233m-20.775,0a6.233,6.233,0,1,0,6.233,6.233,6.232,6.232,0,0,0-6.233-6.233m-20.778,0a6.233,6.233,0,1,0,6.237,6.233,6.232,6.232,0,0,0-6.237-6.233m-20.775,0a6.233,6.233,0,1,0,6.233,6.233,6.232,6.232,0,0,0-6.233-6.233m-20.775,0a6.233,6.233,0,1,0,6.233,6.233,6.23,6.23,0,0,0-6.233-6.233m-20.778,0a6.233,6.233,0,1,0,6.233,6.233,6.232,6.232,0,0,0-6.233-6.233m-20.775,0a6.233,6.233,0,1,0,6.233,6.233,6.23,6.23,0,0,0-6.233-6.233m-20.778,0a6.233,6.233,0,1,0,6.233,6.233,6.232,6.232,0,0,0-6.233-6.233m-20.775,0a6.233,6.233,0,1,0,6.233,6.233,6.232,6.232,0,0,0-6.233-6.233m332.423-20.779a6.233,6.233,0,1,0,6.233,6.233,6.232,6.232,0,0,0-6.233-6.233m-20.778,0a6.233,6.233,0,1,0,6.233,6.233,6.234,6.234,0,0,0-6.233-6.233m-20.775,0a6.233,6.233,0,1,0,6.233,6.233,6.232,6.232,0,0,0-6.233-6.233m-20.778,0a6.233,6.233,0,1,0,6.233,6.233,6.234,6.234,0,0,0-6.233-6.233m-20.775,0a6.233,6.233,0,1,0,6.233,6.233,6.234,6.234,0,0,0-6.233-6.233m-20.775,0a6.233,6.233,0,1,0,6.233,6.233,6.232,6.232,0,0,0-6.233-6.233m-20.778,0a6.233,6.233,0,1,0,6.233,6.233,6.234,6.234,0,0,0-6.233-6.233m-20.775,0a6.233,6.233,0,1,0,6.233,6.233,6.232,6.232,0,0,0-6.233-6.233m-20.779,0a6.233,6.233,0,1,0,6.233,6.233,6.235,6.235,0,0,0-6.233-6.233m-20.775,0a6.233,6.233,0,1,0,6.233,6.233,6.234,6.234,0,0,0-6.233-6.233m-20.778,0a6.233,6.233,0,1,0,6.237,6.233,6.234,6.234,0,0,0-6.237-6.233m-20.775,0a6.233,6.233,0,1,0,6.233,6.233,6.234,6.234,0,0,0-6.233-6.233m-20.775,0a6.233,6.233,0,1,0,6.233,6.233,6.232,6.232,0,0,0-6.233-6.233m-20.778,0a6.233,6.233,0,1,0,6.233,6.233,6.235,6.235,0,0,0-6.233-6.233m-20.775,0a6.233,6.233,0,1,0,6.233,6.233,6.232,6.232,0,0,0-6.233-6.233m-20.778,0a6.233,6.233,0,1,0,6.233,6.233,6.235,6.235,0,0,0-6.233-6.233m-20.775,0a6.233,6.233,0,1,0,6.233,6.233,6.234,6.234,0,0,0-6.233-6.233m332.423-20.775a6.233,6.233,0,1,0,6.233,6.233,6.232,6.232,0,0,0-6.233-6.233m-20.778,0a6.233,6.233,0,1,0,6.233,6.233,6.235,6.235,0,0,0-6.233-6.233m-20.775,0a6.233,6.233,0,1,0,6.233,6.233,6.232,6.232,0,0,0-6.233-6.233m-20.778,0a6.233,6.233,0,1,0,6.233,6.233,6.234,6.234,0,0,0-6.233-6.233m-20.775,0a6.233,6.233,0,1,0,6.233,6.233,6.234,6.234,0,0,0-6.233-6.233m-20.775,0a6.233,6.233,0,1,0,6.233,6.233,6.232,6.232,0,0,0-6.233-6.233m-20.778,0a6.233,6.233,0,1,0,6.233,6.233,6.235,6.235,0,0,0-6.233-6.233m-20.775,0a6.233,6.233,0,1,0,6.233,6.233,6.232,6.232,0,0,0-6.233-6.233m-20.779,0a6.233,6.233,0,1,0,6.233,6.233,6.235,6.235,0,0,0-6.233-6.233m-20.775,0a6.233,6.233,0,1,0,6.233,6.233,6.235,6.235,0,0,0-6.233-6.233m-20.778,0a6.233,6.233,0,1,0,6.237,6.233,6.234,6.234,0,0,0-6.237-6.233m-20.775,0a6.233,6.233,0,1,0,6.233,6.233,6.235,6.235,0,0,0-6.233-6.233m-20.775,0a6.233,6.233,0,1,0,6.233,6.233,6.232,6.232,0,0,0-6.233-6.233m-20.778,0a6.233,6.233,0,1,0,6.233,6.233,6.235,6.235,0,0,0-6.233-6.233m-20.775,0a6.233,6.233,0,1,0,6.233,6.233,6.232,6.232,0,0,0-6.233-6.233m-20.778,0a6.233,6.233,0,1,0,6.233,6.233,6.235,6.235,0,0,0-6.233-6.233m-14.542,6.233a6.233,6.233,0,1,1-6.233-6.233,6.235,6.235,0,0,1,6.233,6.233" transform="translate(815.395 -734.526)" fill="#b4e8f2"/>
    </g>
  </g>
</svg>
